<svg width="250" height="47" viewBox="0 0 250 47" fill="none" xmlns="http://www.w3.org/2000/svg"><mask id="a" fill="#fff"><path d="M249.588 25.076c-2.164.094-4.328.137-6.487.206-2.164.051-4.327.094-6.486.124l-6.487.073-6.486.026h-.352l-.254-.253-2.528-2.529h1.215l-7.118 7.118-.61.61-.609-.61-4.525-4.52h1.228l-2.125 2.124v-1.227l2.061 2.06h-1.228l4.108-4.108v1.232l-4.25-4.25h1.236l-4.108 4.108-.257.258h-.365l-46.114.017.631-.262-6.658 6.671-.636.636-.635-.636-19.4-19.382-9.697-9.69-.262-.21-.039-.03-.021-.004-.039-.008a.197.197 0 0 1-.068-.035c-.056-.026-.151-.038-.224-.068-.081-.013-.163-.013-.244-.026a1.234 1.234 0 0 0-.889.369l-2.421 2.425-4.847 4.851V8.831l21.98 21.963h-1.323l6.221-6.23v1.327l-6.135-6.13h1.331l-3.636 3.64v-1.335l11.848 11.84h-1.343l12.436-12.445v1.352l-9.066-9.058h1.36l-3 3.001.004-1.36 5.984 6.06.674.683-.678.683-12.119 12.127-6.057 6.066-3.031 3.03-1.515 1.516-.189.189-.095.094-.025.026-.099.09-.052.043c-.154.116-.218.21-.532.382-.129.073-.27.15-.399.202l-.374.116c-.249.086-.515.077-.772.103-.515-.026-1.043-.12-1.494-.39-.241-.112-.434-.288-.631-.451-.116-.095-.146-.138-.219-.206l-.189-.19-1.515-1.515-3.031-3.03-6.057-6.066L99.74 22.83l-.677-.682.674-.683 5.984-6.061.004 1.36-3.001-3h1.361l-9.066 9.058V21.47l12.436 12.445h-1.344l11.849-11.84V23.4l-3.641-3.644h1.331l-6.134 6.13V24.56l6.22 6.23h-1.322l21.979-21.963v1.305l-4.846-4.85-2.422-2.426a1.237 1.237 0 0 0-1.781.017l-9.698 9.689-19.39 19.382-.636.636-.635-.636-6.663-6.667.631.262-46.114-.017h-.365l-.257-.257-4.108-4.109h1.236l-4.25 4.25v-1.232l4.108 4.108h-1.228l2.061-2.06v1.227l-2.125-2.124h1.228l-4.525 4.516-.61.61-.609-.61-7.109-7.114h1.215l-2.529 2.529-.253.253h-.352l-6.49-.03-6.487-.073c-2.164-.03-4.327-.073-6.487-.124-2.168-.07-4.327-.112-6.49-.206A.431.431 0 0 1 0 24.629a.433.433 0 0 1 .412-.412c2.164-.094 4.328-.137 6.487-.206 2.164-.052 4.327-.095 6.486-.124l6.487-.073 6.486-.026-.6.253 2.528-2.529.61-.61.61.61 7.112 7.11h-1.223l4.52-4.525.614-.614.614.614 2.125 2.125.614.614-.614.614-2.06 2.06-.614.614-.614-.614-4.108-4.108-.619-.614.618-.618 4.25-4.25.619-.618.618.618 4.108 4.108-.618-.258 46.114-.017h.369l.262.262 6.667 6.663h-1.271l19.382-19.395 9.689-9.698c.541-.558 1.365-.932 2.177-.927.202.008.408.03.609.056.198.055.391.107.589.18.206.099.433.223.601.339l.167.137.082.069.042.034.022.018.09.081 2.426 2.421 4.85 4.847.653.652-.653.653-21.962 21.98-.661.66-.661-.66-6.229-6.22-.661-.662.661-.665 6.13-6.135.666-.665.665.665 3.645 3.64.665.666-.674.652-11.84 11.849-.669.674-.674-.674-12.445-12.433-.679-.678.679-.678 9.058-9.067.678-.682.682.682 3.001 3.001.678.678-.674.683-5.98 6.066-.004-1.365 12.128 12.118 6.065 6.058 3.031 3.03 1.516 1.516.188.189c.056.055.142.146.172.159.082.051.142.137.236.167.163.112.365.124.554.15.094-.026.197 0 .288-.043.047-.017.09-.026.141-.038.035-.017.048-.03.078-.039.017.034.206-.137.334-.236l.052-.043c.069-.064-.082.073-.06.056l.013-.013.025-.026.095-.094.189-.19 1.515-1.514 3.031-3.031 6.066-6.058 12.127-12.118-.004 1.365-5.98-6.066-.674-.683.678-.678 3.001-3 .682-.683.679.682 9.058 9.067.678.678-.678.678-12.45 12.433-.674.674-.669-.674-11.84-11.849-.665-.67.665-.665 3.645-3.64.665-.665.665.665 6.131 6.134.661.666-.661.66-6.229 6.221-.661.661-.662-.66-21.962-21.98-.652-.653.652-.652 4.851-4.847 2.426-2.421a3.067 3.067 0 0 1 2.197-.906c.202.017.408.03.606.065.197.06.386.098.592.188.108.052.211.108.314.168l.15.09.073.047.043.035.167.137.082.069.043.034.09.082.017.017 9.689 9.697 19.382 19.396h-1.27l6.666-6.663.262-.262h.369l46.114.017-.618.258 4.109-4.108.618-.619.618.619 4.25 4.25.618.618-.618.614-4.108 4.108-.614.614-.614-.614-2.061-2.06-.614-.615.614-.613 2.125-2.125.614-.614.614.614 4.52 4.524h-1.223l7.113-7.109.61-.61.609.61 2.529 2.529-.605-.254 6.486.026 6.487.073c2.163.03 4.327.073 6.486.125 2.164.068 4.327.111 6.487.206a.431.431 0 0 1 0 .863z"/></mask><path d="M249.588 25.076c-2.164.094-4.328.137-6.487.206-2.164.051-4.327.094-6.486.124l-6.487.073-6.486.026h-.352l-.254-.253-2.528-2.529h1.215l-7.118 7.118-.61.61-.609-.61-4.525-4.52h1.228l-2.125 2.124v-1.227l2.061 2.06h-1.228l4.108-4.108v1.232l-4.25-4.25h1.236l-4.108 4.108-.257.258h-.365l-46.114.017.631-.262-6.658 6.671-.636.636-.635-.636-19.4-19.382-9.697-9.69-.262-.21-.039-.03-.021-.004-.039-.008a.197.197 0 0 1-.068-.035c-.056-.026-.151-.038-.224-.068-.081-.013-.163-.013-.244-.026a1.234 1.234 0 0 0-.889.369l-2.421 2.425-4.847 4.851V8.831l21.98 21.963h-1.323l6.221-6.23v1.327l-6.135-6.13h1.331l-3.636 3.64v-1.335l11.848 11.84h-1.343l12.436-12.445v1.352l-9.066-9.058h1.36l-3 3.001.004-1.36 5.984 6.06.674.683-.678.683-12.119 12.127-6.057 6.066-3.031 3.03-1.515 1.516-.189.189-.095.094-.025.026-.099.09-.052.043c-.154.116-.218.21-.532.382-.129.073-.27.15-.399.202l-.374.116c-.249.086-.515.077-.772.103-.515-.026-1.043-.12-1.494-.39-.241-.112-.434-.288-.631-.451-.116-.095-.146-.138-.219-.206l-.189-.19-1.515-1.515-3.031-3.03-6.057-6.066L99.74 22.83l-.677-.682.674-.683 5.984-6.061.004 1.36-3.001-3h1.361l-9.066 9.058V21.47l12.436 12.445h-1.344l11.849-11.84V23.4l-3.641-3.644h1.331l-6.134 6.13V24.56l6.22 6.23h-1.322l21.979-21.963v1.305l-4.846-4.85-2.422-2.426a1.237 1.237 0 0 0-1.781.017l-9.698 9.689-19.39 19.382-.636.636-.635-.636-6.663-6.667.631.262-46.114-.017h-.365l-.257-.257-4.108-4.109h1.236l-4.25 4.25v-1.232l4.108 4.108h-1.228l2.061-2.06v1.227l-2.125-2.124h1.228l-4.525 4.516-.61.61-.609-.61-7.109-7.114h1.215l-2.529 2.529-.253.253h-.352l-6.49-.03-6.487-.073c-2.164-.03-4.327-.073-6.487-.124-2.168-.07-4.327-.112-6.49-.206A.431.431 0 0 1 0 24.629a.433.433 0 0 1 .412-.412c2.164-.094 4.328-.137 6.487-.206 2.164-.052 4.327-.095 6.486-.124l6.487-.073 6.486-.026-.6.253 2.528-2.529.61-.61.61.61 7.112 7.11h-1.223l4.52-4.525.614-.614.614.614 2.125 2.125.614.614-.614.614-2.06 2.06-.614.614-.614-.614-4.108-4.108-.619-.614.618-.618 4.25-4.25.619-.618.618.618 4.108 4.108-.618-.258 46.114-.017h.369l.262.262 6.667 6.663h-1.271l19.382-19.395 9.689-9.698c.541-.558 1.365-.932 2.177-.927.202.008.408.03.609.056.198.055.391.107.589.18.206.099.433.223.601.339l.167.137.082.069.042.034.022.018.09.081 2.426 2.421 4.85 4.847.653.652-.653.653-21.962 21.98-.661.66-.661-.66-6.229-6.22-.661-.662.661-.665 6.13-6.135.666-.665.665.665 3.645 3.64.665.666-.674.652-11.84 11.849-.669.674-.674-.674-12.445-12.433-.679-.678.679-.678 9.058-9.067.678-.682.682.682 3.001 3.001.678.678-.674.683-5.98 6.066-.004-1.365 12.128 12.118 6.065 6.058 3.031 3.03 1.516 1.516.188.189c.056.055.142.146.172.159.082.051.142.137.236.167.163.112.365.124.554.15.094-.026.197 0 .288-.043.047-.017.09-.026.141-.038.035-.017.048-.03.078-.039.017.034.206-.137.334-.236l.052-.043c.069-.064-.082.073-.06.056l.013-.013.025-.026.095-.094.189-.19 1.515-1.514 3.031-3.031 6.066-6.058 12.127-12.118-.004 1.365-5.98-6.066-.674-.683.678-.678 3.001-3 .682-.683.679.682 9.058 9.067.678.678-.678.678-12.45 12.433-.674.674-.669-.674-11.84-11.849-.665-.67.665-.665 3.645-3.64.665-.665.665.665 6.131 6.134.661.666-.661.66-6.229 6.221-.661.661-.662-.66-21.962-21.98-.652-.653.652-.652 4.851-4.847 2.426-2.421a3.067 3.067 0 0 1 2.197-.906c.202.017.408.03.606.065.197.06.386.098.592.188.108.052.211.108.314.168l.15.09.073.047.043.035.167.137.082.069.043.034.09.082.017.017 9.689 9.697 19.382 19.396h-1.27l6.666-6.663.262-.262h.369l46.114.017-.618.258 4.109-4.108.618-.619.618.619 4.25 4.25.618.618-.618.614-4.108 4.108-.614.614-.614-.614-2.061-2.06-.614-.615.614-.613 2.125-2.125.614-.614.614.614 4.52 4.524h-1.223l7.113-7.109.61-.61.609.61 2.529 2.529-.605-.254 6.486.026 6.487.073c2.163.03 4.327.073 6.486.125 2.164.068 4.327.111 6.487.206a.431.431 0 0 1 0 .863z" fill="#fff" stroke="#fff" stroke-width="2" mask="url(#a)"/></svg>